<svg width="26" height="26" viewBox="0 0 26 26" fill="none" xmlns="http://www.w3.org/2000/svg">
<path d="M11.9998 0.699997C12.1875 0.487184 12.4183 0.316743 12.6769 0.199997C12.9356 0.0832514 13.2161 0.0228729 13.4998 0.0228729C13.7836 0.0228729 14.0641 0.0832514 14.3227 0.199997C14.5813 0.316743 14.8121 0.487184 14.9998 0.699997L23.4998 10.3C23.6369 10.4398 23.7299 10.6167 23.7673 10.8088C23.8048 11.0009 23.785 11.1998 23.7105 11.3808C23.6359 11.5618 23.5099 11.717 23.348 11.8271C23.1862 11.9371 22.9955 11.9972 22.7998 12H4.19982C4.0041 11.9972 3.81348 11.9371 3.65161 11.8271C3.48973 11.717 3.36372 11.5618 3.28919 11.3808C3.21466 11.1998 3.19489 11.0009 3.23233 10.8088C3.26977 10.6167 3.36278 10.4398 3.49982 10.3L11.9998 0.699997Z" fill="#0A95FF"/>
<path opacity="0.5" d="M20.5998 16H6.39982L13.4998 24L20.4998 16H20.5998ZM14.9998 25.3C14.8121 25.5128 14.5813 25.6833 14.3227 25.8C14.0641 25.9167 13.7836 25.9771 13.4998 25.9771C13.2161 25.9771 12.9356 25.9167 12.6769 25.8C12.4183 25.6833 12.1875 25.5128 11.9998 25.3L3.49982 15.7C3.36278 15.5602 3.26977 15.3833 3.23233 15.1912C3.19489 14.999 3.21466 14.8002 3.28919 14.6192C3.36372 14.4381 3.48973 14.283 3.65161 14.1729C3.81348 14.0629 4.0041 14.0027 4.19982 14H22.7998C22.9955 14.0027 23.1862 14.0629 23.348 14.1729C23.5099 14.283 23.6359 14.4381 23.7105 14.6192C23.785 14.8002 23.8048 14.999 23.7673 15.1912C23.7299 15.3833 23.6369 15.5602 23.4998 15.7L14.9998 25.3Z" fill="#0A95FF"/>
</svg>
