<svg width="550" height="125" viewBox="0 0 550 125" fill="none" xmlns="http://www.w3.org/2000/svg">
<g opacity="0.5">
<path d="M232.73 73L217.5 92.89V73H201.5V26H265.5V73H232.73Z" fill="#CCEAFF"/>
<path d="M205 47V20.5H219.5M255.5 66.5H236.99L221 86.06V66.5H205V58M231.5 20.5H270V66.5H263.5" stroke="#1060E1" stroke-miterlimit="10"/>
<path d="M222.5 40.7901V48.09L230.66 55.3801L246.5 41.17V33.3L230.66 47.6101L222.5 40.7901Z" fill="white"/>
<path d="M374.36 76L365.07 87.42L364.81 76H359.5V49H404.5V76H374.36Z" fill="#FFB935"/>
<path d="M379.5 46.5H402V55M402 62V73.5H372.02L363 84.92V73.5H357V46.5H368.5" stroke="#F48024" stroke-miterlimit="10"/>
<path d="M377.5 59H382.5V64H377.5V59ZM367.5 59H372.5V64H367.5V59ZM387.5 59H392.5V64H387.5V59Z" fill="white"/>
<path d="M180.25 67L185.41 73.77L185.55 67H188.5V51H163.5V67H180.25V67Z" fill="#FFB935"/>
<path d="M170.5 65.5H181.23L187 72.22V65.5H191V59M170.5 49.5H165V65M191 53V49.5H175.5" stroke="#F48024" stroke-miterlimit="10"/>
<path d="M178.5 60H175.5V57H178.5V60Z" fill="white"/>
<path d="M184.5 60H181.5V57H184.5V60Z" fill="white"/>
<path d="M172.5 60H169.5V57H172.5V60Z" fill="white"/>
<path d="M486.95 77L502.5 96.89V77H518.5V30H453.5V77H486.95Z" fill="#FFB935"/>
<path d="M515 51V24.5H500.5M464.5 70.5H483.01L499 90.06V70.5H515V62M488.5 24.5H450V70.5H456.5" stroke="#F48024" stroke-miterlimit="10"/>
<path d="M470.5 44.71V52L478.66 59.3L494.5 45.09V37.22L478.66 51.52L470.5 44.71V44.71Z" fill="white"/>
<path d="M533.5 34.5H531.36L527 40.34V34.5H524V22.5H528.5M545 30V35.5H537.5M533.5 22.5H545V26M534 28.5H536V30.5H534V28.5Z" stroke="#1060E1" stroke-miterlimit="10"/>
<path d="M280 30V16.5H287.5M305.5 39.5H296L288 49.5V39.5H280V35M293.5 15.5H313V39.5H309.5M529 28.5H531V30.5H529V28.5ZM539 28.5H541V30.5H539V28.5Z" stroke="#1060E1" stroke-miterlimit="10"/>
<path d="M289 26.52V30.17L293.08 33.82L301 26.71V22.78L293.08 29.93L289 26.52Z" stroke="#1060E1" stroke-miterlimit="10"/>
<path d="M124.5 27.5H125.91L129 31.73V27.5H131V17.5H128.5M115 23V27.5H121.5M124.5 17.5H115V21" stroke="#F48024" stroke-miterlimit="10"/>
<path d="M124 23.5H122V21.5H124V23.5Z" stroke="#F48024" stroke-miterlimit="10"/>
<path d="M128 23.5H126V21.5H128V23.5Z" stroke="#F48024" stroke-miterlimit="10"/>
<path d="M120 23.5H118V21.5H120V23.5Z" stroke="#F48024" stroke-miterlimit="10"/>
<path d="M188.5 78.19C188.5 78.19 193.19 97.1 216 94.47M131 32.67C131 32.67 152.64 30.67 164 47.67M271.12 69.19C295.04 100.43 326.33 104.37 361.76 88.49M402 43.5C402.68 37.22 421.53 13.37 447.26 22.5M503.45 98.26C508.7 98.36 541.25 87.42 526.54 43.5M272.34 66.5C272.34 66.5 282.85 66.5 287.5 52.62" stroke="#BBC0C4" stroke-miterlimit="10" stroke-dasharray="5 5"/>
<path d="M97.2207 79.67C111.551 77.28 139.731 76.49 153.091 92.32C166.451 108.15 212.001 113.25 217.581 95.32" stroke="#BBC0C4" stroke-miterlimit="10" stroke-dasharray="5 5"/>
</g>
<path d="M59.1497 84.6001V83.5601M71.5997 84.8101V88.5401M53.3897 82.5101L49.4297 81.9701L52.3897 60.3701L79.7597 64.1201L76.7997 85.7201L56.7497 82.9701" stroke="#1060E1" stroke-miterlimit="10"/>
<path d="M66.6001 79.11L66.4001 80.55M69.4801 79.5L69.2801 80.94M63.7201 78.71L63.5201 80.15M60.8401 78.32L60.6401 79.76M57.9601 77.93L57.7601 79.37M50.2201 76.21L47.9101 75.89C47.6455 75.8569 47.3902 75.7713 47.1592 75.6381C46.9282 75.5049 46.7261 75.3268 46.5649 75.1144C46.4037 74.9019 46.2867 74.6594 46.2206 74.4011C46.1545 74.1427 46.1408 73.8738 46.1801 73.61L46.8101 69C46.8418 68.7326 46.9272 68.4742 47.0611 68.2406C47.1951 68.0069 47.3748 67.8027 47.5896 67.6402C47.8044 67.4777 48.0498 67.3603 48.3111 67.295C48.5724 67.2296 48.8442 67.2177 49.1101 67.26L51.4101 67.57L50.2201 76.21ZM79.8801 80.27L77.5901 80L78.7701 71.36L81.0901 71.68C81.3538 71.7132 81.6082 71.7985 81.8384 71.9311C82.0687 72.0636 82.2703 72.2408 82.4314 72.4521C82.5924 72.6634 82.7097 72.9047 82.7765 73.1619C82.8433 73.4191 82.8581 73.687 82.8201 73.95L82.1801 78.57C82.1436 78.8339 82.0547 79.0879 81.9186 79.3169C81.7826 79.546 81.6021 79.7456 81.3878 79.904C81.1736 80.0623 80.9298 80.1763 80.6709 80.2391C80.412 80.302 80.1432 80.3125 79.8801 80.27V80.27Z" stroke="#1060E1" stroke-miterlimit="10"/>
<path d="M69.3596 70.9026C69.5748 69.3322 68.445 67.8805 66.8363 67.6601C65.2276 67.4397 63.7492 68.5342 63.534 70.1046C63.3189 71.6749 64.4486 73.1266 66.0573 73.347C67.666 73.5674 69.1445 72.473 69.3596 70.9026Z" stroke="#1060E1" stroke-miterlimit="10"/>
<path d="M59.676 69.5727C59.8912 68.0023 58.7614 66.5506 57.1527 66.3302C55.5441 66.1099 54.0656 67.2043 53.8504 68.7747C53.6353 70.3451 54.765 71.7968 56.3737 72.0171C57.9824 72.2375 59.4609 71.1431 59.676 69.5727Z" stroke="#1060E1" stroke-miterlimit="10"/>
<path d="M55.4197 105.96V113.42M72.8397 105.96V113.42M76.5697 96.0099V97.2499M66.6197 96.0099V97.2499M54.1797 95.3799H61.6497V100.36H54.1797V95.3799Z" stroke="#1060E1" stroke-miterlimit="10"/>
<path d="M81.5509 100.98V105.34H46.7109V87.9199H51.9909M57.4309 79.3899L55.4509 82.3899" stroke="#1060E1" stroke-miterlimit="10"/>
<path d="M62.2698 87.92H81.5498V97.25M54.3098 90.61C51.9698 89.06 51.1398 86.18 52.4598 84.18L54.2598 81.45L62.7498 87.06L60.9998 89.78C59.6298 91.79 56.6598 92.16 54.3098 90.61Z" stroke="#1060E1" stroke-miterlimit="10"/>
<path d="M88.32 96.44L89.6 92.27C89.5935 91.6922 89.4732 91.1213 89.246 90.5899C89.0188 90.0586 88.6892 89.5772 88.276 89.1733C87.8628 88.7693 87.374 88.4508 86.8377 88.2357C86.3013 88.0207 85.7278 87.9134 85.15 87.92H79.68M79.29 104.84L81.97 101.4M82.72 107.53L85.41 104.09M55.3 91.15C54.738 91.3431 54.1529 91.4608 53.56 91.5H46.5M88.32 96.83C90.54 98.56 91.13 101.5 89.65 103.39L87.65 105.96L79.65 99.69L81.65 97.12C83.12 95.23 86.11 95.1 88.32 96.83Z" stroke="#1060E1" stroke-miterlimit="10"/>
<path d="M40.8205 46.2401L48.7805 56.2401L49.0105 46.2401H53.5605V22.6001H14.9805V46.2401H40.8205Z" fill="#FFB935"/>
<path d="M28.6696 43.13H43.3596L51.6896 53.66V43.13H57.9096V33.8M26.1796 19.49H18.0996V43.75M56.6696 25.09V19.49H33.6496" stroke="#F48024" stroke-miterlimit="10"/>
<path d="M34.1695 33.8C34.1384 33.0417 34.2538 32.2845 34.5095 31.57C34.7907 30.9349 35.2152 30.3736 35.7495 29.93C36.2261 29.5547 36.6469 29.1136 36.9995 28.62C37.1956 28.2975 37.2994 27.9274 37.2995 27.55C37.2995 26.43 36.7795 25.86 35.7395 25.86C35.5216 25.8499 35.304 25.8856 35.1007 25.9648C34.8975 26.0441 34.7131 26.1651 34.5595 26.32C34.4045 26.4879 34.2841 26.6847 34.2052 26.8992C34.1262 27.1137 34.0903 27.3416 34.0995 27.57H31.1995C31.1733 27.0105 31.2699 26.452 31.4823 25.9338C31.6948 25.4156 32.0181 24.9501 32.4295 24.57C33.3597 23.8101 34.5402 23.425 35.7395 23.49C36.9216 23.4094 38.0922 23.7652 39.0295 24.49C39.4264 24.855 39.7373 25.3036 39.9396 25.8034C40.1419 26.3032 40.2307 26.8417 40.1995 27.38C40.1868 27.9465 40.0394 28.5018 39.7695 29C39.4211 29.629 38.9718 30.1965 38.4395 30.68L37.6295 31.45C37.1458 31.8987 36.8374 32.5048 36.7595 33.16V33.77L34.1695 33.8ZM33.9995 36.85C33.9972 36.6625 34.0343 36.4766 34.1084 36.3043C34.1825 36.1321 34.2919 35.9773 34.4295 35.85C34.7291 35.5856 35.1149 35.4398 35.5145 35.4398C35.9141 35.4398 36.2999 35.5856 36.5995 35.85C36.7372 35.9773 36.8466 36.1321 36.9206 36.3043C36.9947 36.4766 37.0318 36.6625 37.0295 36.85C37.0343 37.0369 36.9994 37.2227 36.927 37.3951C36.8546 37.5675 36.7463 37.7226 36.6095 37.85C36.303 38.1081 35.9152 38.2496 35.5145 38.2496C35.1138 38.2496 34.726 38.1081 34.4195 37.85C34.2827 37.7226 34.1745 37.5675 34.1021 37.3951C34.0296 37.2227 33.9947 37.0369 33.9995 36.85Z" fill="white"/>
<path d="M75.3303 122.13V123.38M70.3503 122.13V123.38M57.9103 122.13V123.38M52.9303 122.13V123.38M79.0603 124H66.6203V119.79C66.5893 118.308 67.0695 116.861 67.9801 115.692C68.8907 114.523 70.1762 113.703 71.6203 113.37C72.5426 113.194 73.4927 113.226 74.4008 113.465C75.309 113.703 76.1522 114.142 76.8686 114.749C77.585 115.356 78.1563 116.116 78.5408 116.973C78.9252 117.829 79.113 118.761 79.0903 119.7L79.0603 124ZM61.6403 124H49.2003V119.79C49.1731 118.309 49.6547 116.864 50.5647 115.696C51.4747 114.527 52.758 113.706 54.2003 113.37C55.1226 113.194 56.0727 113.226 56.9808 113.465C57.889 113.703 58.7322 114.142 59.4486 114.749C60.165 115.356 60.7363 116.116 61.1208 116.973C61.5052 117.829 61.693 118.761 61.6703 119.7L61.6403 124Z" stroke="#1060E1" stroke-miterlimit="10"/>
</svg>
