<svg width="26" height="26" viewBox="0 0 26 26" fill="blue" xmlns="http://www.w3.org/2000/svg">
<path opacity="0.5" d="M4.2002 4H22.0002C22.5306 4 23.0393 4.21071 23.4144 4.58579C23.7895 4.96086 24.0002 5.46957 24.0002 6V17.8C24.5805 17.5948 25.0838 17.2161 25.4415 16.7152C25.7993 16.2143 25.9944 15.6155 26.0002 15V5C26.0002 4.20435 25.6841 3.44129 25.1215 2.87868C24.5589 2.31607 23.7958 2 23.0002 2H7.0002C6.38467 2.00584 5.78585 2.20088 5.28496 2.55866C4.78406 2.91645 4.40535 3.41965 4.2002 4V4Z" fill="#0A95FF"/>
<path d="M1 7C1 5.9 1.9 5 3 5H21C21.5304 5 22.0391 5.21071 22.4142 5.58579C22.7893 5.96086 23 6.46957 23 7V19C23 19.5304 22.7893 20.0391 22.4142 20.4142C22.0391 20.7893 21.5304 21 21 21H19V26L14 21H3C2.46957 21 1.96086 20.7893 1.58579 20.4142C1.21071 20.0391 1 19.5304 1 19V7ZM11.6 18.3C12.3 18.3 12.8 17.8 12.8 17.1C12.8 16.4 12.3 15.9 11.6 15.9C11 15.9 10.4 16.3 10.4 17.1C10.4 17.8 10.9 18.2 11.6 18.3ZM13.8 12.9L14.8 12C15.1 11.6 15.2 11.1 15.2 10.6C15.2 9.6 14.9 8.9 14.2 8.4C13.6 7.9 12.8 7.7 11.8 7.7C11 7.7 10.4 7.9 9.8 8.2C9.1 8.7 8.8 9.6 8.8 11H10.7V10.9C10.7 10.5 10.7 10.2 10.9 9.9C11.1 9.5 11.4 9.3 11.9 9.3C12.4 9.3 12.7 9.4 12.9 9.7C13.1322 9.94207 13.2619 10.2645 13.2619 10.6C13.2619 10.9355 13.1322 11.2579 12.9 11.5L12.5 11.8L11.1 13.1C10.8 13.5 10.7 14.1 10.7 14.7C10.7 14.7 10.7 14.9 10.9 14.9H12.4C12.6 14.9 12.6 14.8 12.6 14.7L12.7 14L13.2 13.3L13.8 12.9V12.9Z" fill="#0A95FF"/>
</svg>
