<svg width="26" height="26" viewBox="0 0 26 26" fill="none" xmlns="http://www.w3.org/2000/svg">
<g clip-path="url(#clip0_24_793)">
<path d="M14.7998 3C14.2723 3.00751 13.7691 3.22317 13.3998 3.6L3.39984 13.6C3.03339 13.9739 2.82812 14.4765 2.82812 15C2.82812 15.5235 3.03339 16.0261 3.39984 16.4L11.5998 24.6C12.3998 25.4 13.5998 25.4 14.3998 24.6L24.3998 14.6C24.7998 14.2 24.9998 13.7 24.9998 13.2V5C24.9998 4.46957 24.7891 3.96086 24.4141 3.58579C24.039 3.21071 23.5303 3 22.9998 3H14.7998ZM19.9998 10C19.4694 10 18.9607 9.78929 18.5856 9.41421C18.2106 9.03914 17.9998 8.53043 17.9998 8C17.9998 7.46957 18.2106 6.96086 18.5856 6.58579C18.9607 6.21071 19.4694 6 19.9998 6C20.5303 6 21.039 6.21071 21.4141 6.58579C21.7891 6.96086 21.9998 7.46957 21.9998 8C21.9998 8.53043 21.7891 9.03914 21.4141 9.41421C21.039 9.78929 20.5303 10 19.9998 10Z" fill="#0A95FF"/>
<path opacity="0.5" d="M13 0C12.4725 0.0075141 11.9693 0.223172 11.6 0.6L1.60003 10.6C1.23358 10.9739 1.02832 11.4765 1.02832 12C1.02832 12.5235 1.23358 13.0261 1.60003 13.4C1.70003 13.2 1.90003 12.8 2.20003 12.6L12.2 2.6C12.5693 2.22317 13.0725 2.00751 13.6 2H23.2C23.2 1.46957 22.9893 0.960859 22.6142 0.585786C22.2392 0.210714 21.7305 0 21.2 0L13 0V0Z" fill="#0A95FF"/>
</g>
<defs>
<clipPath id="clip0_24_793">
<rect width="26" height="26" fill="white"/>
</clipPath>
</defs>
</svg>
